<svg xmlns="http://www.w3.org/2000/svg" width="1200" height="700"><rect width="1200" height="700" fill="#0f172a"/><text x="60" y="110" fill="#e2e8f0" font-size="54" font-family="Arial">Promptfolio — Home (sanitized capture placeholder)</text><g fill="#22c55e"><rect x="80" y="350" width="18" height="120"/><rect x="115" y="325" width="18" height="138"/><rect x="150" y="300" width="18" height="156"/><rect x="185" y="275" width="18" height="174"/><rect x="220" y="250" width="18" height="192"/><rect x="255" y="225" width="18" height="120"/><rect x="290" y="350" width="18" height="138"/><rect x="325" y="325" width="18" height="156"/><rect x="360" y="300" width="18" height="174"/><rect x="395" y="275" width="18" height="192"/><rect x="430" y="250" width="18" height="120"/><rect x="465" y="225" width="18" height="138"/><rect x="500" y="350" width="18" height="156"/><rect x="535" y="325" width="18" height="174"/><rect x="570" y="300" width="18" height="192"/><rect x="605" y="275" width="18" height="120"/><rect x="640" y="250" width="18" height="138"/><rect x="675" y="225" width="18" height="156"/><rect x="710" y="350" width="18" height="174"/><rect x="745" y="325" width="18" height="192"/></g></svg>